<svg xmlns:xlink="http://www.w3.org/1999/xlink" preserveAspectRatio="xMidYMid meet" data-bbox="17.5 17.5 165.025 165" viewBox="17.5 17.5 165.025 165" height="200" width="200" xmlns="http://www.w3.org/2000/svg" data-type="color" role="presentation" aria-hidden="true"><defs><style>#comp-lilnfeiq svg [data-color="1"] {fill: #F8F7F3;}
#comp-lilnfeiq svg [data-color="2"] {fill: #F8F7F3;}</style></defs>
    <g>
        <path d="M55.1 182.5c-10 0-19.5-3.9-26.6-11-7.1-7.1-11-16.5-11-26.6 0-10 3.9-19.5 11-26.6l89.8-89.8c7.1-7.1 16.5-11 26.6-11 10 0 19.5 3.9 26.6 11 14.7 14.7 14.7 38.5 0 53.2l-89.8 89.8c-7.1 7.1-16.6 11-26.6 11zM144.9 26c-7.8 0-15.1 3-20.6 8.5l-89.8 89.8c-5.5 5.5-8.5 12.8-8.5 20.6 0 7.8 3 15.1 8.5 20.6 11.4 11.4 29.8 11.4 41.2 0l89.8-89.8c11.4-11.4 11.4-29.8 0-41.2C160 29 152.7 26 144.9 26z" fill="#F8F7F3" data-color="1"></path>
        <path d="M152.6 66.3c-.9 0-1.8-.3-2.5-1-1.4-1.4-1.4-3.6 0-5 2.8-2.8 2.8-7.5 0-10.3-1.9-1.9-4-2.1-5.2-2.1-1.9 0-3.5-1.6-3.5-3.5s1.6-3.5 3.5-3.5c2.2 0 6.5.5 10.1 4.2 5.6 5.6 5.6 14.7 0 20.3-.6.5-1.5.9-2.4.9z" fill="#F8F7F3" data-color="2"></path>
        <path d="M55.1 159.2c-2.2 0-6.5-.5-10.1-4.2-3.7-3.7-4.2-7.9-4.2-10.1s.5-6.5 4.2-10.1c1.4-1.4 3.6-1.4 5 0s1.4 3.6 0 5c-1.9 1.9-2.1 4-2.1 5.2s.3 3.3 2.1 5.1c1.9 1.9 4 2.1 5.2 2.1 1.9 0 3.5 1.6 3.5 3.5-.1 2-1.7 3.5-3.6 3.5z" fill="#F8F7F3" data-color="2"></path>
        <path d="M123.6 127.8c-1.1 0-2.2-.4-3-1.2L73.4 79.4c-1.7-1.7-1.7-4.3 0-6s4.3-1.7 6 0l47.2 47.2c1.7 1.7 1.7 4.3 0 6-.8.8-1.9 1.2-3 1.2z" fill="#F8F7F3" data-color="1"></path>
    </g>
</svg>