<svg xmlns:xlink="http://www.w3.org/1999/xlink" preserveAspectRatio="none" data-bbox="30.501 29.5 139.002 141.001" viewBox="30.501 29.5 139.002 141.001" height="200" width="200" xmlns="http://www.w3.org/2000/svg" data-type="shape" role="presentation" aria-hidden="true">
    <g stroke="#5E97FF" fill="#F8F7F3" stroke-width="0px">
        <path d="M166.124 83.089a17.198 17.198 0 0 0-11.34-6.844 17.39 17.39 0 0 0-2.749-.195h-33.669v-22.6c0-13.206-10.752-23.95-23.966-23.95-1.58 0-3.013.93-3.654 2.374L65.179 89.35H47.811c-9.545 0-17.31 7.761-17.31 17.3v46.55c0 9.539 7.766 17.3 17.31 17.3h94.995l.195.001c8.499 0 15.839-6.29 17.115-14.699l9.185-59.856a17.177 17.177 0 0 0-3.177-12.857zm-102.346 79.41H47.811c-5.134 0-9.31-4.172-9.31-9.3v-46.55c0-5.128 4.177-9.3 9.31-9.3h15.967v65.15zm97.615-67.761-9.185 59.856c-.687 4.524-4.634 7.906-9.25 7.906h-71.18V94.2L96.91 37.697c7.616 1.206 13.456 7.811 13.456 15.753v26.6a4 4 0 0 0 4 4h37.715a8.958 8.958 0 0 1 1.503.105 9.249 9.249 0 0 1 6.1 3.681 9.226 9.226 0 0 1 1.709 6.902z" stroke="#5E97FF" fill="#F8F7F3" stroke-width="0px"></path>
    </g>
</svg>